<?xml version="1.0" standalone="no"?>
<!DOCTYPE svg PUBLIC "-//W3C//DTD SVG 20010904//EN"
 "http://www.w3.org/TR/2001/REC-SVG-20010904/DTD/svg10.dtd">
<svg version="1.0" xmlns="http://www.w3.org/2000/svg"
 width="2000.000000pt" height="1000.000000pt" viewBox="0 0 2000.000000 1000.000000"
 preserveAspectRatio="xMidYMid meet">
<metadata>
Created by potrace 1.16, written by Peter Selinger 2001-2019
</metadata>
<g transform="translate(0.000000,1000.000000) scale(0.100000,-0.100000)"
fill="#000000" stroke="none">
<path d="M400 7390 l0 -180 248 -2 247 -3 3 -1637 2 -1638 -250 0 -250 0 0
-180 0 -180 1045 0 1045 0 0 180 0 180 -300 0 -300 0 0 1820 0 1820 -745 0
-745 0 0 -180z"/>
<path d="M1980 7392 l0 -180 218 -4 c249 -6 294 -16 368 -81 126 -111 188
-416 163 -794 -12 -177 -36 -288 -88 -397 -45 -95 -86 -140 -161 -175 -53 -25
-62 -26 -277 -29 l-223 -4 0 -184 0 -184 198 0 c246 0 444 14 587 40 501 91
874 397 987 811 20 73 23 107 23 264 0 156 -3 191 -23 265 -110 407 -484 707
-1007 806 -70 13 -167 18 -427 21 l-338 5 0 -180z"/>
<path d="M4130 7390 l0 -180 233 -2 232 -3 6 -1250 c5 -1125 7 -1258 23 -1335
64 -322 184 -559 383 -758 136 -135 282 -225 491 -301 l82 -30 0 1823 c0 1004
3 1831 6 1840 5 14 36 16 240 16 l234 0 0 180 0 180 -965 0 -965 0 0 -180z"/>
<path d="M6520 7392 l0 -178 123 -11 c137 -13 198 -31 276 -81 67 -42 85 -62
119 -132 l27 -55 3 -1145 c2 -835 0 -1165 -9 -1220 -26 -174 -107 -329 -238
-461 -99 -98 -190 -155 -321 -197 -79 -25 -97 -27 -260 -27 -166 0 -179 2
-255 28 -96 34 -123 50 -234 140 l-86 69 -6 -238 c-3 -132 -9 -249 -13 -261
-5 -14 -3 -40 5 -67 15 -51 1 -47 209 -72 162 -19 406 -15 550 11 276 49 512
167 690 345 199 199 296 386 362 695 7 33 13 452 17 1220 7 1334 -1 1225 95
1320 86 84 183 120 362 131 l104 7 0 178 0 179 -760 0 -760 0 0 -178z"/>
<path d="M8270 7390 l0 -180 103 0 c162 -1 235 -14 275 -53 19 -18 94 -121
168 -231 l134 -198 0 -1192 c0 -1298 2 -1255 -56 -1354 -55 -93 -169 -177
-298 -218 -61 -20 -111 -27 -203 -31 l-123 -6 0 -178 0 -179 880 0 880 0 0
178 0 179 -117 6 c-65 4 -145 14 -177 23 -153 41 -281 137 -338 252 l-33 67
-3 934 c-1 547 1 931 6 926 5 -6 194 -275 419 -600 225 -324 640 -922 922
-1327 l513 -738 179 0 179 0 0 641 0 640 -125 182 c-69 100 -511 733 -983
1407 l-859 1225 -671 3 -672 2 0 -180z"/>
<path d="M10500 7391 l0 -178 114 -7 c63 -4 147 -16 187 -27 208 -58 344 -194
369 -370 5 -35 10 -353 10 -706 l0 -642 200 -303 200 -303 0 956 c0 644 4 975
11 1015 30 165 168 298 368 353 40 11 124 23 187 27 l114 7 0 178 0 179 -880
0 -880 0 0 -179z"/>
<path d="M12556 7558 c-3 -12 -47 -1665 -46 -1745 l0 -33 174 0 174 0 17 98
c42 243 112 513 171 662 91 233 185 388 311 512 89 88 146 120 256 145 l77 18
0 177 0 178 -565 0 c-444 0 -566 -3 -569 -12z"/>
<path d="M13760 5750 l0 -1820 -275 0 -275 0 0 -180 0 -180 1045 0 1045 0 0
180 0 180 -275 0 -275 0 0 1820 0 1820 -495 0 -495 0 0 -1820z"/>
<path d="M14808 7421 c-7 -216 -12 -203 80 -224 150 -34 243 -97 353 -239 149
-194 255 -445 343 -818 19 -80 39 -179 45 -220 7 -41 14 -90 17 -107 l5 -33
174 0 175 0 0 103 c0 56 -9 417 -20 802 -11 385 -20 742 -20 793 l0 92 -574 0
-573 0 -5 -149z"/>
<path d="M16350 7390 l0 -180 253 -2 252 -3 3 -1637 2 -1638 -255 0 -255 0 0
-180 0 -180 1640 0 1640 0 0 835 0 835 -174 0 c-201 0 -180 14 -191 -125 -9
-111 -71 -390 -112 -510 -90 -261 -292 -535 -453 -613 -121 -59 -151 -63 -521
-60 l-334 3 -3 1818 -2 1817 -745 0 -745 0 0 -180z"/>
<path d="M17920 7390 l0 -180 273 0 c149 0 303 -5 341 -10 113 -17 206 -67
307 -169 186 -186 313 -444 374 -761 8 -47 18 -95 21 -107 4 -23 7 -23 164
-23 l160 0 0 715 0 715 -820 0 -820 0 0 -180z"/>
<path d="M18460 6455 c0 -200 -89 -414 -230 -555 -75 -75 -127 -99 -229 -107
l-81 -6 0 -187 0 -187 84 -5 c107 -7 162 -32 236 -109 133 -137 220 -359 220
-559 l0 -80 180 0 180 0 0 935 0 935 -180 0 -180 0 0 -75z"/>
<path d="M5550 1735 l0 -435 60 0 60 0 0 205 0 205 115 0 115 0 0 -205 0 -205
55 0 55 0 0 435 0 435 -55 0 -55 0 0 -190 0 -190 -115 0 -115 0 0 190 0 190
-60 0 -60 0 0 -435z"/>
<path d="M6206 1757 c-48 -227 -90 -423 -93 -435 -5 -21 -2 -22 49 -22 l55 0
19 108 19 107 93 3 c68 2 93 -1 96 -10 3 -7 12 -57 22 -110 l16 -98 54 0 c30
0 54 1 54 3 -1 1 -42 196 -93 432 l-93 430 -55 3 -55 3 -88 -414z m183 53 c17
-96 31 -183 31 -192 0 -15 -10 -18 -68 -18 -38 0 -71 2 -73 5 -3 2 11 92 31
199 19 107 38 192 41 188 3 -4 20 -86 38 -182z"/>
<path d="M6680 1736 l0 -436 50 0 50 0 0 297 c0 163 3 293 7 289 4 -4 61 -136
128 -294 l121 -287 37 -3 37 -3 0 435 0 436 -50 0 -50 0 0 -292 -1 -293 -124
290 -123 290 -41 3 -41 3 0 -435z"/>
<path d="M7250 1735 l0 -438 140 5 c122 5 146 8 187 29 40 20 53 35 78 84 l30
60 0 270 c0 257 -1 272 -21 310 -47 87 -94 106 -276 113 l-138 5 0 -438z m264
335 c14 -5 33 -24 43 -42 16 -29 18 -62 18 -293 0 -244 -1 -262 -20 -295 -24
-40 -66 -59 -137 -59 l-48 -1 0 350 0 350 59 0 c33 0 71 -4 85 -10z"/>
<path d="M7826 1853 c-3 -175 -7 -371 -9 -436 l-2 -117 48 0 47 0 0 317 c0
184 4 313 9 308 5 -6 36 -131 70 -280 86 -375 76 -345 111 -345 19 0 30 6 34
18 2 9 35 148 72 307 36 160 70 294 75 300 5 5 9 -126 9 -308 l0 -317 45 0 45
0 0 163 c0 90 -3 286 -7 436 l-6 272 -55 -3 -55 -3 -76 -347 c-42 -192 -78
-348 -82 -348 -3 0 -39 156 -80 348 l-76 347 -55 3 -56 3 -6 -318z"/>
<path d="M8660 2166 c0 -3 -40 -195 -90 -428 -49 -233 -90 -427 -90 -431 0 -4
24 -7 53 -5 l52 3 19 108 19 107 93 0 93 0 10 -55 c6 -30 16 -80 22 -110 l10
-55 54 0 c39 0 53 3 50 13 -3 6 -43 194 -90 417 -47 223 -88 413 -91 423 -4
13 -17 17 -60 17 -30 0 -54 -2 -54 -4z m96 -357 c19 -101 34 -189 34 -196 0
-10 -21 -13 -76 -13 l-76 0 6 28 c11 50 66 356 66 366 0 5 3 7 6 3 3 -3 21
-88 40 -188z"/>
<path d="M9050 1735 l0 -438 140 5 c122 5 146 8 187 29 40 20 53 35 78 84 l30
60 0 270 c0 257 -1 272 -21 310 -47 87 -94 106 -276 113 l-138 5 0 -438z m264
335 c14 -5 33 -24 43 -42 16 -29 18 -62 18 -293 0 -244 -1 -262 -20 -295 -24
-40 -66 -59 -137 -59 l-48 -1 0 350 0 350 59 0 c33 0 71 -4 85 -10z"/>
<path d="M9620 1735 l0 -435 165 0 165 0 0 40 0 40 -110 0 -110 0 0 165 0 165
90 0 90 0 0 40 0 40 -90 0 -90 0 0 145 0 145 110 0 110 0 0 45 0 45 -165 0
-165 0 0 -435z"/>
<path d="M10300 1736 l0 -436 114 0 c198 0 262 24 306 115 24 49 32 148 17
217 -10 48 -51 96 -101 119 l-40 18 42 16 c57 23 82 76 82 172 0 94 -28 148
-94 182 -42 22 -64 25 -187 29 l-139 5 0 -437z m285 322 c48 -42 54 -170 10
-218 -22 -25 -75 -40 -137 -40 l-48 0 0 140 0 140 74 0 c63 0 79 -4 101 -22z
m-26 -356 c52 -26 72 -61 78 -133 10 -131 -29 -179 -151 -187 l-76 -5 0 172 0
171 58 0 c34 0 70 -7 91 -18z"/>
<path d="M10995 2148 c-17 -71 -175 -824 -175 -835 0 -9 15 -13 49 -13 57 0
51 -10 76 128 l17 92 93 0 93 0 16 -97 c10 -54 19 -104 21 -110 5 -15 105 -18
105 -3 0 5 -40 199 -90 431 -49 231 -90 423 -90 425 0 2 -25 4 -55 4 -48 0
-55 -3 -60 -22z m99 -344 c20 -105 36 -193 36 -197 0 -4 -34 -7 -75 -7 -41 0
-75 4 -75 8 0 10 44 255 61 340 6 30 12 52 14 50 2 -2 19 -89 39 -194z"/>
<path d="M11500 2159 c-42 -17 -89 -70 -107 -123 -15 -44 -18 -88 -18 -306 0
-245 1 -257 23 -305 45 -98 95 -128 212 -127 137 1 195 67 207 235 l6 87 -57
0 -56 0 0 -75 c0 -93 -17 -137 -59 -155 -38 -15 -96 -8 -122 16 -35 32 -40 80
-37 351 3 246 4 263 24 289 24 33 65 46 117 38 57 -9 77 -47 77 -146 l0 -78
56 0 57 0 -6 86 c-10 163 -69 225 -216 223 -42 0 -87 -5 -101 -10z"/>
<path d="M11940 1735 l0 -435 60 0 60 0 0 159 c0 153 1 160 26 206 19 34 29
43 35 33 5 -7 43 -100 86 -205 l78 -193 53 0 c28 0 52 3 52 7 0 3 -43 111 -95
238 -52 127 -95 236 -95 241 0 6 36 91 80 189 44 98 80 182 80 187 0 4 -22 8
-48 8 l-49 0 -101 -207 -102 -208 0 208 0 207 -60 0 -60 0 0 -435z"/>
<path d="M12470 1735 l0 -435 60 0 60 0 0 205 0 205 75 0 c113 0 167 27 208
105 29 55 29 181 0 246 -38 86 -98 108 -285 109 l-118 0 0 -435z m279 333 c28
-17 41 -59 41 -128 0 -115 -32 -150 -140 -150 l-60 0 0 151 0 152 69 -6 c38
-3 78 -12 90 -19z"/>
<path d="M13125 2158 c-2 -7 -43 -195 -90 -418 -47 -223 -87 -413 -89 -422 -4
-15 3 -18 49 -18 l52 0 13 63 c6 34 16 83 22 110 l10 47 92 0 92 0 19 -110 18
-110 55 0 c47 0 54 2 50 18 -3 9 -44 205 -93 435 l-89 417 -53 0 c-34 0 -55
-5 -58 -12z m95 -343 c17 -93 34 -180 37 -192 5 -22 3 -23 -71 -23 -66 0 -76
2 -76 18 0 17 55 317 66 362 8 32 8 34 44 -165z"/>
<path d="M13610 2148 c-37 -19 -51 -34 -75 -83 l-30 -60 0 -271 0 -270 30 -59
c39 -76 93 -107 187 -108 151 -1 208 60 224 242 l7 81 -55 0 -55 0 -5 -91 c-5
-76 -9 -94 -28 -114 -49 -52 -146 -41 -175 20 -14 30 -15 72 -13 315 l3 280
26 25 c32 33 84 41 131 22 43 -18 58 -57 58 -154 l0 -63 56 0 57 0 -7 81 c-14
170 -70 229 -219 229 -56 0 -83 -5 -117 -22z"/>
<path d="M14070 1735 l0 -435 55 0 55 0 0 153 c0 152 0 152 31 206 22 39 33
50 39 40 4 -8 42 -101 85 -206 l78 -193 53 0 c30 0 54 2 54 4 0 2 -43 109 -96
237 -53 129 -97 239 -97 244 0 6 36 92 81 193 45 100 82 184 82 187 0 3 -23 5
-50 5 l-50 0 -103 -207 -102 -208 -3 208 -2 207 -55 0 -55 0 0 -435z"/>
</g>
</svg>
